HIERARCHY
ROOT Hips
{
	OFFSET 0.000000 0.000000 0.000000 
	CHANNELS 6 Xposition Yposition Zposition Zrotation Xrotation Yrotation
	JOINT Spine
	{
		OFFSET -0.000000 8.285670 0.000000 
		CHANNELS 3 Zrotation Xrotation Yrotation
		JOINT Spine1
		{
			OFFSET -0.000000 20.280901 0.000000 
			CHANNELS 3 Zrotation Xrotation Yrotation
			JOINT Neck
			{
				OFFSET -0.000000 22.301800 0.000000 
				CHANNELS 3 Zrotation Xrotation Yrotation
				JOINT Head
				{
					OFFSET -0.000000 15.661900 2.020890 
					CHANNELS 3 Zrotation Xrotation Yrotation
					End Site
					{
						OFFSET -0.000000 20.208887 0.000000 
					}
				}
			}
			JOINT LeftShoulder
			{
				OFFSET 3.887530 15.503099 -0.416373 
				CHANNELS 3 Zrotation Xrotation Yrotation
				JOINT LeftArm
				{
					OFFSET 20.767099 0.000000 0.000000 
					CHANNELS 3 Zrotation Xrotation Yrotation
					JOINT LeftForeArm
					{
						OFFSET 26.608500 0.000000 0.000000 
						CHANNELS 3 Zrotation Xrotation Yrotation
						JOINT LeftHand
						{
							OFFSET 25.563202 0.000000 0.000000 
							CHANNELS 3 Zrotation Xrotation Yrotation
							End Site
							{
								OFFSET 15.156667 0.000000 0.000000 
							}
						}
					}
				}
			}
			JOINT RightShoulder
			{
				OFFSET -4.190880 15.503099 -0.416373 
				CHANNELS 3 Zrotation Xrotation Yrotation
				JOINT RightArm
				{
					OFFSET -20.767099 0.000000 0.000000 
					CHANNELS 3 Zrotation Xrotation Yrotation
					JOINT RightForeArm
					{
						OFFSET -26.608500 0.000000 0.000000 
						CHANNELS 3 Zrotation Xrotation Yrotation
						JOINT RightHand
						{
							OFFSET -25.563202 0.000000 0.000000 
							CHANNELS 3 Zrotation Xrotation Yrotation
							End Site
							{
								OFFSET -15.156667 0.000000 0.000000 
							}
						}
					}
				}
			}
		}
	}
	JOINT LeftUpLeg
	{
		OFFSET 10.104500 0.000000 0.000000 
		CHANNELS 3 Zrotation Xrotation Yrotation
		JOINT LeftLeg
		{
			OFFSET -0.000000 -50.743301 0.000000 
			CHANNELS 3 Zrotation Xrotation Yrotation
			JOINT LeftFoot
			{
				OFFSET -0.000000 -35.579197 0.000000 
				CHANNELS 3 Zrotation Xrotation Yrotation
				JOINT LeftToeBase
				{
					OFFSET -0.000000 -6.567910 15.156700 
					CHANNELS 3 Zrotation Xrotation Yrotation
					End Site
					{
						OFFSET -0.000000 0.000000 4.041778 
					}
				}
			}
		}
	}
	JOINT RightUpLeg
	{
		OFFSET -10.104500 0.000000 0.000000 
		CHANNELS 3 Zrotation Xrotation Yrotation
		JOINT RightLeg
		{
			OFFSET -0.000000 -50.743301 0.000000 
			CHANNELS 3 Zrotation Xrotation Yrotation
			JOINT RightFoot
			{
				OFFSET -0.000000 -35.579197 0.000000 
				CHANNELS 3 Zrotation Xrotation Yrotation
				JOINT RightToeBase
				{
					OFFSET -0.000000 -6.567910 15.156700 
					CHANNELS 3 Zrotation Xrotation Yrotation
					End Site
					{
						OFFSET -0.000000 0.000000 4.041778 
					}
				}
			}
		}
	}
}
MOTION
Frames: 9
Frame Time: 0.010000
0.000000 93.461098 0.000000 -2.864559 7.138371 4.389587 0.332665 -10.637048 -3.895816 5.112420 1.682114 -1.383956 -0.646272 -1.105225 -2.667308 -9.616214 22.207441 0.222284 -2.948613 5.038624 2.709346 -81.165787 21.844942 -11.144733 4.573118 3.791422 -7.013037 -11.421754 3.338851 7.326981 -9.820940 2.476617 -5.157697 78.692978 28.124908 16.829588 -1.004176 2.700935 0.450612 14.530268 1.770967 -7.321203 6.342862 -14.194914 -2.829321 4.419744 26.657534 -45.079426 11.609650 -22.128399 54.117371 0.000000 0.000000 0.000000 -1.336069 -8.177472 -11.664565 7.124189 16.129456 -6.160682 -6.539237 -19.484121 -6.637977 0.000000 0.000000 0.000000 
0.006530 93.461441 0.003056 -2.863118 7.116220 4.375294 0.334644 -10.621464 -3.887116 5.112637 1.690178 -1.381454 -0.641258 -1.105410 -2.665712 -9.622697 22.207933 0.226647 -2.946729 5.034166 2.709293 -81.165573 21.841089 -11.143914 4.568746 3.795171 -7.010936 -11.425821 3.342427 7.322622 -9.818691 2.475266 -5.157622 78.691856 28.122662 16.826462 -1.006685 2.698503 0.447860 14.522240 1.770083 -7.313004 6.341747 -14.163995 -2.820451 4.423841 26.658241 -45.061939 11.594719 -22.153559 54.118164 0.000000 0.000000 0.000000 -1.335093 -8.150529 -11.650792 7.118252 16.119478 -6.154936 -6.545670 -19.477077 -6.632442 0.000000 0.000000 0.000000 
0.013079 93.461784 0.006051 -2.861593 7.094380 4.360879 0.336475 -10.606092 -3.878453 5.113013 1.698161 -1.378955 -0.636522 -1.105511 -2.664081 -9.628826 22.208408 0.230952 -2.945143 5.029736 2.709268 -81.165100 21.837234 -11.143090 4.564260 3.798904 -7.008930 -11.429842 3.345982 7.318344 -9.816323 2.473804 -5.157487 78.690613 28.120539 16.823214 -1.009421 2.696033 0.445055 14.514366 1.769165 -7.304774 6.340544 -14.133427 -2.811574 4.427972 26.659018 -45.044472 11.579629 -22.178740 54.118847 0.000000 0.000000 0.000000 -1.334287 -8.123929 -11.636973 7.112452 16.109592 -6.149198 -6.552181 -19.470079 -6.627030 0.000000 0.000000 0.000000 
0.019635 93.462143 0.008977 -2.860057 7.072750 4.346718 0.338296 -10.590914 -3.869806 5.113273 1.706119 -1.376468 -0.631816 -1.105700 -2.662425 -9.634756 22.208969 0.235130 -2.943288 5.025270 2.709185 -81.164864 21.833342 -11.142212 4.559783 3.802644 -7.006931 -11.433793 3.349534 7.314131 -9.814184 2.472359 -5.157337 78.689575 28.118429 16.819941 -1.012069 2.693560 0.442342 14.506620 1.768234 -7.296628 6.339191 -14.103163 -2.802781 4.432240 26.659777 -45.026756 11.564322 -22.203922 54.119114 0.000000 0.000000 0.000000 -1.333557 -8.097671 -11.623331 7.106601 16.099855 -6.143664 -6.558473 -19.463211 -6.621384 0.000000 0.000000 0.000000 
0.026189 93.462509 0.011812 -2.858558 7.051358 4.332363 0.340117 -10.575723 -3.861239 5.113544 1.713812 -1.374014 -0.627122 -1.105869 -2.660822 -9.640665 22.209578 0.239334 -2.941527 5.020948 2.709146 -81.164589 21.829628 -11.141505 4.555553 3.806289 -7.004670 -11.437794 3.352995 7.309852 -9.811952 2.471083 -5.157181 78.688431 28.116318 16.816856 -1.014762 2.691139 0.439555 14.499055 1.767314 -7.288528 6.337830 -14.073284 -2.794270 4.436395 26.660641 -45.009136 11.549010 -22.228977 54.119484 0.000000 0.000000 0.000000 -1.332865 -8.071691 -11.609841 7.100847 16.090132 -6.137970 -6.564847 -19.456207 -6.616041 0.000000 0.000000 0.000000 
0.032735 93.462875 0.014539 -2.857159 7.030216 4.318624 0.341956 -10.560699 -3.852801 5.113833 1.721411 -1.371616 -0.622386 -1.105921 -2.659220 -9.646608 22.210032 0.243516 -2.939762 5.016758 2.709061 -81.164307 21.825768 -11.140862 4.551249 3.809958 -7.002475 -11.441610 3.356499 7.305710 -9.809800 2.469738 -5.156995 78.687279 28.114191 16.813709 -1.017287 2.688789 0.436781 14.491637 1.766438 -7.280514 6.336471 -14.043889 -2.785975 4.440639 26.661673 -44.991505 11.533575 -22.254045 54.119461 0.000000 0.000000 0.000000 -1.332166 -8.046046 -11.596504 7.095117 16.080490 -6.132526 -6.570980 -19.449249 -6.610566 0.000000 0.000000 0.000000 
0.039290 93.463257 0.017130 -2.855748 7.009458 4.304942 0.343814 -10.545783 -3.844495 5.114050 1.728714 -1.369235 -0.617587 -1.106110 -2.657626 -9.652555 22.210686 0.247682 -2.937990 5.012431 2.708972 -81.164131 21.821999 -11.140014 4.546977 3.813586 -7.000269 -11.445337 3.359929 7.301737 -9.807583 2.468405 -5.156811 78.685989 28.112146 16.810560 -1.019792 2.686455 0.434134 14.484579 1.765534 -7.272708 6.334979 -14.015076 -2.778002 4.444932 26.662796 -44.973816 11.518115 -22.278887 54.119198 0.000000 0.000000 0.000000 -1.331507 -8.020949 -11.583604 7.089230 16.071058 -6.127357 -6.576588 -19.442322 -6.604716 0.000000 0.000000 0.000000 
0.045836 93.463646 0.019583 -2.854444 6.989043 4.291704 0.345718 -10.531020 -3.836415 5.114234 1.735785 -1.366895 -0.612650 -1.106304 -2.656064 -9.658723 22.211454 0.251940 -2.936204 5.008243 2.708833 -81.163902 21.818123 -11.139248 4.542521 3.817202 -6.997956 -11.448750 3.363355 7.297860 -9.805343 2.467165 -5.156513 78.684700 28.110092 16.807459 -1.022335 2.684173 0.431506 14.477844 1.764654 -7.265054 6.333471 -13.986918 -2.770436 4.449262 26.664110 -44.956139 11.502507 -22.303595 54.118568 0.000000 0.000000 0.000000 -1.330857 -7.996289 -11.571004 7.083462 16.061670 -6.122250 -6.582189 -19.435421 -6.599057 0.000000 0.000000 0.000000 
0.052402 93.464058 0.021807 -2.853126 6.969360 4.278578 0.347530 -10.516707 -3.828499 5.114356 1.742584 -1.364593 -0.607757 -1.106403 -2.654548 -9.664679 22.212029 0.256085 -2.934268 5.004077 2.708658 -81.163933 21.814291 -11.138454 4.538332 3.820752 -6.995595 -11.452173 3.366717 7.294198 -9.803315 2.465982 -5.156240 78.683578 28.108084 16.804401 -1.024825 2.682000 0.428918 14.471489 1.763835 -7.257580 6.331778 -13.959797 -2.763354 4.453460 26.665556 -44.938232 11.486753 -22.328028 54.117626 0.000000 0.000000 0.000000 -1.330471 -7.972552 -11.558668 7.077912 16.052511 -6.117220 -6.587691 -19.428495 -6.593589 0.000000 0.000000 0.000000 
